<svg xmlns="http://www.w3.org/2000/svg" xmlns:xlink="http://www.w3.org/1999/xlink" width="40" zoomAndPan="magnify" viewBox="0 0 30 30.000001" height="40" preserveAspectRatio="xMidYMid meet" version="1.0"><defs><g/><clipPath id="9fd6be0625"><path d="M 0.484375 0 L 29.515625 0 L 29.515625 29.03125 L 0.484375 29.03125 Z M 0.484375 0 " clip-rule="nonzero"/></clipPath><clipPath id="97756acd0f"><path d="M 1.933594 0 L 28.066406 0 C 28.867188 0 29.515625 0.648438 29.515625 1.453125 L 29.515625 27.582031 C 29.515625 28.382812 28.867188 29.03125 28.066406 29.03125 L 1.933594 29.03125 C 1.132812 29.03125 0.484375 28.382812 0.484375 27.582031 L 0.484375 1.453125 C 0.484375 0.648438 1.132812 0 1.933594 0 Z M 1.933594 0 " clip-rule="nonzero"/></clipPath></defs><g clip-path="url(#9fd6be0625)"><g clip-path="url(#97756acd0f)"><path fill="#898989" d="M 0.484375 0 L 29.515625 0 L 29.515625 29.03125 L 0.484375 29.03125 Z M 0.484375 0 " fill-opacity="1" fill-rule="nonzero"/></g></g><g fill="#000000" fill-opacity="1"><g transform="translate(2.876975, 15.491767)"><g><path d="M 5.527344 -4.78125 C 5.527344 -5.285156 5.128906 -5.695312 4.625 -5.695312 C 4.121094 -5.695312 3.722656 -5.285156 3.722656 -4.78125 C 3.722656 -4.289062 4.121094 -3.878906 4.625 -3.878906 C 5.128906 -3.878906 5.527344 -4.289062 5.527344 -4.78125 Z M 9.25 -4.816406 C 9.25 -7.207031 7.699219 -9.609375 4.636719 -9.609375 C 1.527344 -9.609375 0 -7.207031 0 -4.816406 C 0 -2.414062 1.527344 0 4.636719 0 C 7.699219 0 9.25 -2.414062 9.25 -4.816406 Z M 7.449219 -4.78125 C 7.449219 -3.230469 6.5 -1.683594 4.636719 -1.683594 C 2.75 -1.683594 1.8125 -3.230469 1.8125 -4.78125 C 1.8125 -6.355469 2.75 -7.914062 4.636719 -7.914062 C 6.5 -7.914062 7.449219 -6.355469 7.449219 -4.78125 Z M 7.449219 -4.78125 "/></g></g></g><g fill="#000000" fill-opacity="1"><g transform="translate(12.58097, 15.491767)"><g><path d="M 7.953125 -9.609375 L 6.402344 -9.609375 C 6.320312 -9.609375 6.257812 -9.550781 6.257812 -9.5 L 6.257812 -3.242188 L 1.824219 -9.574219 C 1.8125 -9.597656 1.742188 -9.609375 1.71875 -9.609375 L 0.121094 -9.609375 C 0.0585938 -9.609375 0 -9.550781 0 -9.5 L 0 -2.304688 L 1.835938 -2.304688 L 1.835938 -6.367188 L 6.257812 -0.0351562 C 6.269531 -0.0117188 6.34375 0 6.367188 0 L 7.953125 0 C 8.035156 0 8.085938 -0.0585938 8.085938 -0.109375 L 8.085938 -9.5 C 8.085938 -9.550781 8.035156 -9.609375 7.953125 -9.609375 Z M 7.953125 -9.609375 "/></g></g></g><g fill="#000000" fill-opacity="1"><g transform="translate(21.071962, 15.491767)"><g><path d="M 4.566406 -1.789062 L 1.835938 -1.789062 L 1.835938 -3.953125 L 5.609375 -3.953125 C 5.683594 -3.953125 5.742188 -4.011719 5.742188 -4.058594 L 5.742188 -5.585938 C 5.742188 -5.644531 5.683594 -5.695312 5.609375 -5.695312 L 1.835938 -5.695312 L 1.835938 -7.867188 L 4.566406 -7.867188 L 4.566406 -9.609375 L 0.132812 -9.609375 C 0.0585938 -9.609375 0 -9.550781 0 -9.5 L 0 -0.109375 C 0 -0.0585938 0.0585938 0 0.132812 0 L 4.566406 0 Z M 4.566406 -1.789062 "/></g></g></g><g fill="#000000" fill-opacity="1"><g transform="translate(7.833172, 23.049899)"><g><path d="M 0.140625 -1.21875 L 1.546875 -1.21875 L 1.546875 -2.1875 L 1.3125 -2.1875 C 1.019531 -2.1875 0.800781 -2.210938 0.65625 -2.265625 C 0.507812 -2.316406 0.394531 -2.410156 0.3125 -2.546875 C 0.28125 -2.609375 0.25 -2.671875 0.21875 -2.734375 C 0.195312 -2.804688 0.175781 -2.882812 0.15625 -2.96875 C 0.144531 -3.0625 0.132812 -3.164062 0.125 -3.28125 C 0.125 -3.40625 0.125 -3.550781 0.125 -3.71875 L 0.125 -4.0625 C 0.125 -4.757812 0.238281 -5.207031 0.46875 -5.40625 C 0.507812 -5.445312 0.554688 -5.476562 0.609375 -5.5 C 0.671875 -5.53125 0.742188 -5.550781 0.828125 -5.5625 C 0.910156 -5.570312 1.015625 -5.578125 1.140625 -5.578125 C 1.273438 -5.585938 1.441406 -5.59375 1.640625 -5.59375 L 2.9375 -5.59375 L 2.9375 -4.375 L 1.625 -4.375 L 1.625 -3.40625 L 1.890625 -3.40625 C 2.128906 -3.40625 2.328125 -3.382812 2.484375 -3.34375 C 2.640625 -3.300781 2.757812 -3.222656 2.84375 -3.109375 C 2.9375 -2.992188 3 -2.835938 3.03125 -2.640625 C 3.070312 -2.453125 3.09375 -2.210938 3.09375 -1.921875 L 3.09375 -1.578125 C 3.09375 -1.242188 3.070312 -0.972656 3.03125 -0.765625 C 2.988281 -0.554688 2.925781 -0.398438 2.84375 -0.296875 C 2.769531 -0.203125 2.679688 -0.128906 2.578125 -0.078125 C 2.484375 -0.0351562 2.351562 -0.0078125 2.1875 0 L 0.140625 0 Z M 0.140625 -1.21875 "/></g></g></g><g fill="#000000" fill-opacity="1"><g transform="translate(11.032817, 23.049899)"><g><path d="M 0.265625 -5.59375 L 1.765625 -5.59375 L 1.765625 -3.40625 L 2.40625 -3.40625 L 2.40625 -5.59375 L 3.90625 -5.59375 L 3.90625 0 L 2.40625 0 L 2.40625 -2.1875 L 1.765625 -2.1875 L 1.765625 0 L 0.265625 0 Z M 0.265625 -5.59375 "/></g></g></g><g fill="#000000" fill-opacity="1"><g transform="translate(15.215026, 23.049899)"><g><path d="M 1.703125 0 C 1.367188 0 1.097656 -0.046875 0.890625 -0.140625 C 0.691406 -0.242188 0.539062 -0.398438 0.4375 -0.609375 C 0.394531 -0.703125 0.359375 -0.796875 0.328125 -0.890625 C 0.304688 -0.992188 0.285156 -1.109375 0.265625 -1.234375 C 0.253906 -1.359375 0.242188 -1.503906 0.234375 -1.671875 C 0.222656 -1.835938 0.21875 -2.039062 0.21875 -2.28125 L 0.21875 -3.328125 C 0.21875 -3.554688 0.222656 -3.753906 0.234375 -3.921875 C 0.242188 -4.085938 0.253906 -4.234375 0.265625 -4.359375 C 0.285156 -4.484375 0.304688 -4.59375 0.328125 -4.6875 C 0.359375 -4.789062 0.394531 -4.890625 0.4375 -4.984375 C 0.539062 -5.191406 0.691406 -5.34375 0.890625 -5.4375 C 1.097656 -5.539062 1.367188 -5.59375 1.703125 -5.59375 L 2.375 -5.59375 C 2.707031 -5.59375 2.972656 -5.539062 3.171875 -5.4375 C 3.378906 -5.34375 3.535156 -5.191406 3.640625 -4.984375 C 3.679688 -4.890625 3.710938 -4.789062 3.734375 -4.6875 C 3.765625 -4.59375 3.785156 -4.484375 3.796875 -4.359375 C 3.816406 -4.234375 3.832031 -4.085938 3.84375 -3.921875 C 3.851562 -3.753906 3.859375 -3.554688 3.859375 -3.328125 L 3.859375 -2.28125 C 3.859375 -2.039062 3.851562 -1.835938 3.84375 -1.671875 C 3.832031 -1.503906 3.816406 -1.359375 3.796875 -1.234375 C 3.785156 -1.109375 3.765625 -0.992188 3.734375 -0.890625 C 3.710938 -0.796875 3.679688 -0.703125 3.640625 -0.609375 C 3.535156 -0.398438 3.378906 -0.242188 3.171875 -0.140625 C 2.972656 -0.046875 2.707031 0 2.375 0 Z M 2.359375 -4 C 2.359375 -4.132812 2.328125 -4.238281 2.265625 -4.3125 C 2.210938 -4.394531 2.132812 -4.4375 2.03125 -4.4375 C 1.9375 -4.4375 1.859375 -4.394531 1.796875 -4.3125 C 1.742188 -4.238281 1.71875 -4.132812 1.71875 -4 L 1.71875 -1.578125 C 1.71875 -1.441406 1.742188 -1.332031 1.796875 -1.25 C 1.859375 -1.175781 1.9375 -1.140625 2.03125 -1.140625 C 2.132812 -1.140625 2.210938 -1.175781 2.265625 -1.25 C 2.328125 -1.332031 2.359375 -1.441406 2.359375 -1.578125 Z M 2.359375 -4 "/></g></g></g><g fill="#000000" fill-opacity="1"><g transform="translate(19.288058, 23.049899)"><g><path d="M 0.671875 -4.375 L 0 -4.375 L 0 -5.59375 L 2.859375 -5.59375 L 2.859375 -4.375 L 2.1875 -4.375 L 2.1875 0 L 0.671875 0 Z M 0.671875 -4.375 "/></g></g></g></svg>