<svg xmlns="http://www.w3.org/2000/svg" xmlns:xlink="http://www.w3.org/1999/xlink" width="75" zoomAndPan="magnify" viewBox="0 0 56.25 56.249997" height="75" preserveAspectRatio="xMidYMid meet" version="1.0"><defs><g/><clipPath id="9677f5f96a"><path d="M 0 14.734375 L 55.511719 14.734375 L 55.511719 40.773438 L 0 40.773438 Z M 0 14.734375 " clip-rule="nonzero"/></clipPath><clipPath id="b21762b377"><path d="M 2.777344 14.734375 L 52.734375 14.734375 C 54.265625 14.734375 55.511719 15.976562 55.511719 17.511719 L 55.511719 38 C 55.511719 39.53125 54.265625 40.773438 52.734375 40.773438 L 2.777344 40.773438 C 1.242188 40.773438 0 39.53125 0 38 L 0 17.511719 C 0 15.976562 1.242188 14.734375 2.777344 14.734375 Z M 2.777344 14.734375 " clip-rule="nonzero"/></clipPath></defs><g clip-path="url(#9677f5f96a)"><g clip-path="url(#b21762b377)"><path fill="#ffffff" d="M 0 14.734375 L 55.511719 14.734375 L 55.511719 40.773438 L 0 40.773438 Z M 0 14.734375 " fill-opacity="1" fill-rule="nonzero"/></g></g><g fill="#000000" fill-opacity="1"><g transform="translate(13.634612, 32.498218)"><g><path d="M 1.507812 -4.46875 L 1.507812 -7.804688 C 1.507812 -7.84375 1.46875 -7.894531 1.402344 -7.894531 L 0.109375 -7.894531 C 0.0507812 -7.894531 0 -7.84375 0 -7.804688 L 0 -4.46875 Z M 5.898438 -7.894531 L 4.605469 -7.894531 C 4.546875 -7.894531 4.5 -7.84375 4.5 -7.804688 L 4.5 -2.949219 L 1.507812 -2.949219 L 1.507812 -2.960938 L 0 -2.960938 L 0 -0.0898438 C 0 -0.0507812 0.0507812 0 0.109375 0 L 1.402344 0 C 1.46875 0 1.507812 -0.0507812 1.507812 -0.0898438 L 1.507812 -1.480469 L 4.5 -1.480469 L 4.5 -0.0898438 C 4.5 -0.0507812 4.546875 0 4.605469 0 L 5.898438 0 C 5.96875 0 6.007812 -0.0507812 6.007812 -0.0898438 L 6.007812 -7.804688 C 6.007812 -7.84375 5.96875 -7.894531 5.898438 -7.894531 Z M 5.898438 -7.894531 "/></g></g></g><g fill="#000000" fill-opacity="1"><g transform="translate(19.94791, 32.498218)"><g><path d="M 4.539062 -3.925781 C 4.539062 -4.339844 4.210938 -4.675781 3.796875 -4.675781 C 3.382812 -4.675781 3.058594 -4.339844 3.058594 -3.925781 C 3.058594 -3.523438 3.382812 -3.1875 3.796875 -3.1875 C 4.210938 -3.1875 4.539062 -3.523438 4.539062 -3.925781 Z M 7.597656 -3.957031 C 7.597656 -5.917969 6.324219 -7.894531 3.808594 -7.894531 C 1.253906 -7.894531 0 -5.917969 0 -3.957031 C 0 -1.984375 1.253906 0 3.808594 0 C 6.324219 0 7.597656 -1.984375 7.597656 -3.957031 Z M 6.117188 -3.925781 C 6.117188 -2.652344 5.335938 -1.382812 3.808594 -1.382812 C 2.257812 -1.382812 1.488281 -2.652344 1.488281 -3.925781 C 1.488281 -5.21875 2.257812 -6.5 3.808594 -6.5 C 5.335938 -6.5 6.117188 -5.21875 6.117188 -3.925781 Z M 6.117188 -3.925781 "/></g></g></g><g fill="#000000" fill-opacity="1"><g transform="translate(27.918452, 32.498218)"><g><path d="M 7.0625 -1.902344 L 8.5625 -1.902344 L 8.5625 -7.804688 C 8.5625 -7.84375 8.523438 -7.894531 8.457031 -7.894531 L 7.152344 -7.894531 C 7.113281 -7.894531 7.0625 -7.863281 7.042969 -7.832031 L 4.351562 -2.050781 L 1.519531 -7.832031 C 1.507812 -7.863281 1.449219 -7.894531 1.421875 -7.894531 L 0.0976562 -7.894531 C 0.03125 -7.894531 0 -7.84375 0 -7.804688 L 0 -0.0898438 C 0 -0.0507812 0.03125 0 0.0976562 0 L 1.402344 0 C 1.460938 0 1.507812 -0.0507812 1.507812 -0.0898438 L 1.507812 -4.519531 L 3.652344 -0.375 C 3.660156 -0.34375 3.71875 -0.316406 3.75 -0.316406 L 4.960938 -0.316406 C 4.992188 -0.316406 5.042969 -0.34375 5.050781 -0.375 L 7.0625 -4.410156 Z M 7.0625 -1.902344 "/></g></g></g><g fill="#000000" fill-opacity="1"><g transform="translate(36.914907, 32.498218)"><g><path d="M 3.75 -1.46875 L 1.507812 -1.46875 L 1.507812 -3.246094 L 4.605469 -3.246094 C 4.667969 -3.246094 4.714844 -3.296875 4.714844 -3.335938 L 4.714844 -4.585938 C 4.714844 -4.636719 4.667969 -4.675781 4.605469 -4.675781 L 1.507812 -4.675781 L 1.507812 -6.460938 L 3.75 -6.460938 L 3.75 -7.894531 L 0.109375 -7.894531 C 0.0507812 -7.894531 0 -7.84375 0 -7.804688 L 0 -0.0898438 C 0 -0.0507812 0.0507812 0 0.109375 0 L 3.75 0 Z M 3.75 -1.46875 "/></g></g></g></svg>